<svg width="40" height="40" viewBox="0 0 40 40" fill="none" xmlns="http://www.w3.org/2000/svg">
<g opacity="0.8" clip-path="url(#clip0)">
<path d="M20.8906 0.341977L34.2233 12.3413C34.5059 12.5973 34.6659 12.9546 34.6659 13.3333L34.6659 21.3328C34.6659 21.8581 34.3566 22.3355 33.8766 22.5514C33.394 22.7648 32.8313 22.6768 32.442 22.3248L20 11.1281L7.56068 22.3248C7.1687 22.6768 6.60606 22.7674 6.12609 22.5514C5.64345 22.3355 5.33413 21.8581 5.33413 21.3328L5.33413 13.3333C5.33413 12.9546 5.49679 12.5973 5.77411 12.3413L19.1067 0.341977C19.6134 -0.113998 20.3867 -0.113998 20.8906 0.341977Z" fill="#618D66"/>
<path d="M20.8906 17.6744L34.2233 29.6737C34.5059 29.9297 34.6659 30.287 34.6659 30.6657L34.6659 38.6652C34.6659 39.1905 34.3566 39.6679 33.8766 39.8838C33.394 40.0972 32.8313 40.0092 32.442 39.6572L20 28.4605L7.5607 39.6572C7.16872 40.0092 6.60608 40.0998 6.12611 39.8838C5.64347 39.6679 5.33415 39.1905 5.33415 38.6652L5.33415 30.6657C5.33415 30.287 5.49681 29.9297 5.77412 29.6737L19.1067 17.6744C19.6134 17.2184 20.3867 17.2184 20.8906 17.6744Z" fill="#618D66"/>
</g>
<defs>
<clipPath id="clip0">
<rect width="40" height="40" fill="white" transform="matrix(-4.37114e-08 -1 -1 4.37114e-08 40 40)"/>
</clipPath>
</defs>
</svg>
