<svg width="498" height="536" viewBox="0 0 498 536" fill="none" xmlns="http://www.w3.org/2000/svg">
<path d="M123.822 128.949L142.098 112.289L147.568 118.29L119.955 143.461L115.96 139.079L110.351 96.9168L92.4482 113.236L86.9328 107.186L114.122 82.4004L118.026 86.683L123.822 128.949Z" fill="white"/>
<path d="M185.808 86.3701L169.663 93.6773L170.761 104.275L160.969 108.706L157.379 56.4862L165.912 52.6243L202.867 89.7437L193.075 94.1752L185.808 86.3701ZM168.773 85.0934L179.946 80.0367L166.758 65.8507L168.773 85.0934Z" fill="white"/>
<path d="M237.468 65.877L229.465 66.7677L231.452 84.615L221.406 85.7331L215.98 36.9795L234.095 34.9632C239.854 34.3221 244.439 35.1113 247.85 37.3306C251.261 39.5499 253.228 43.0034 253.75 47.6913C254.12 51.0174 253.704 53.8774 252.501 56.2712C251.318 58.6402 249.338 60.646 246.56 62.2886L259.326 81.0379L259.378 81.5067L248.596 82.7068L237.468 65.877ZM228.56 58.6309L236.663 57.729C239.185 57.4482 241.068 56.5946 242.31 55.1682C243.55 53.7194 244.045 51.8677 243.794 49.613C243.538 47.3137 242.678 45.5789 241.214 44.4084C239.773 43.2355 237.702 42.7993 235.001 43.1L226.931 43.9982L228.56 58.6309Z" fill="white"/>
<path d="M301.648 87.8774L291.749 85.8366L301.653 37.7922L311.553 39.833L301.648 87.8774Z" fill="white"/>
<path d="M366.847 116.837L358.063 111.837L356.93 74.0537L340.963 102.104L332.179 97.1043L356.446 54.4721L365.23 59.4721L366.359 97.3311L382.359 69.222L391.114 74.2053L366.847 116.837Z" fill="white"/>
<path d="M408.143 142.842L396.204 129.745L386.465 134.064L379.225 126.122L427.779 106.57L434.089 113.492L410.206 160.109L402.966 152.166L408.143 142.842ZM404.093 126.247L412.355 135.31L421.771 118.384L404.093 126.247Z" fill="white"/>
<path d="M428.105 383.117L437.705 366.251L420.283 356.335L425.283 347.55L467.915 371.817L452.115 399.575L445 395.525L455.8 376.551L444.791 370.284L435.191 387.15L428.105 383.117Z" fill="white"/>
<path d="M393.392 418.691L399.343 413.266L387.246 399.995L394.715 393.186L427.762 429.439L414.292 441.718C410.009 445.622 405.836 447.678 401.772 447.888C397.708 448.097 394.087 446.459 390.909 442.973C388.655 440.5 387.31 437.942 386.876 435.298C386.441 432.686 386.864 429.9 388.145 426.938L366.798 419.273L366.48 418.924L374.497 411.616L393.392 418.691ZM404.858 419.317L398.833 424.809C396.957 426.519 395.936 428.316 395.769 430.2C395.618 432.101 396.306 433.89 397.834 435.567C399.393 437.276 401.108 438.175 402.98 438.261C404.836 438.363 406.768 437.498 408.776 435.667L414.777 430.197L404.858 419.317Z" fill="white"/>
<path d="M323.797 466.464C321.806 462.064 320.838 457.855 320.893 453.836C320.948 449.817 322.02 446.25 324.111 443.134C326.181 440.028 329.089 437.627 332.834 435.932C336.537 434.256 340.245 433.65 343.956 434.115C347.668 434.581 351.067 436.099 354.154 438.671C357.251 441.264 359.782 444.704 361.747 448.992L362.747 451.202C364.738 455.602 365.701 459.826 365.635 463.874C365.558 467.952 364.479 471.535 362.4 474.621C360.309 477.736 357.401 480.137 353.677 481.823C349.953 483.508 346.241 484.104 342.541 483.609C338.829 483.144 335.426 481.59 332.332 478.947C329.226 476.334 326.682 472.838 324.7 468.459L323.797 466.464ZM334.045 464.266C336.166 468.952 338.616 472.133 341.397 473.809C344.177 475.484 347.122 475.618 350.232 474.211C353.322 472.812 355.159 470.526 355.745 467.352C356.339 464.198 355.595 460.294 353.513 455.64L352.527 453.461C350.462 448.898 348.021 445.737 345.203 443.98C342.386 442.222 339.402 442.057 336.251 443.483C333.161 444.881 331.334 447.163 330.769 450.328C330.214 453.513 330.977 457.433 333.059 462.087L334.045 464.266Z" fill="white"/>
<path d="M258.769 453.51L268.814 452.392L291.94 482.293L288.369 450.215L298.415 449.097L303.841 497.851L293.796 498.969L270.629 469.004L274.207 501.149L264.195 502.263L258.769 453.51Z" fill="white"/>
<path d="M193.007 484.634L207.724 487.668L215.976 447.642L225.875 449.682L217.623 489.708L232.142 492.702L230.489 500.72L191.354 492.652L193.007 484.634Z" fill="white"/>
<path d="M143.575 439.552L160.44 449.152L166.94 437.733L147.146 426.466L151.163 419.41L179.741 435.676L155.474 478.308L126.955 462.075L131.005 454.96L150.74 466.193L156.523 456.033L139.658 446.433L143.575 439.552Z" fill="white"/>
<path d="M108.106 377.412L114.915 384.882L104.317 421.167L128.17 399.423L134.979 406.893L98.7263 439.94L91.9172 432.47L102.542 396.115L78.6395 417.904L71.8531 410.459L108.106 377.412Z" fill="white"/>
<path d="M97.1749 360.276L52.4844 380.503L46.2608 366.752C44.4826 362.823 43.7844 358.911 44.1662 355.015C44.5183 351.109 45.9378 347.545 48.4246 344.323C50.8909 341.112 54.2011 338.566 58.355 336.686L60.4115 335.755C64.5654 333.875 68.6479 333.063 72.659 333.318C76.6608 333.553 80.2557 334.823 83.4436 337.128C86.6316 339.432 89.1203 342.534 90.9096 346.433L97.1749 360.276ZM55.7754 367.919L85.6101 354.416L83.5957 349.965C81.9657 346.364 79.5435 344.144 76.329 343.306C73.1145 342.468 69.3085 343.02 64.9109 344.961L62.5475 346.03C58.0047 348.086 54.993 350.584 53.5123 353.522C52.0111 356.47 52.0802 359.754 53.7194 363.376L55.7754 367.919Z" fill="white"/>
</svg>
