<?xml version="1.0" encoding="UTF-8" standalone="no"?>
<svg
   xmlns:dc="http://purl.org/dc/elements/1.1/"
   xmlns:cc="http://creativecommons.org/ns#"
   xmlns:rdf="http://www.w3.org/1999/02/22-rdf-syntax-ns#"
   xmlns:svg="http://www.w3.org/2000/svg"
   xmlns="http://www.w3.org/2000/svg"
   xmlns:sodipodi="http://sodipodi.sourceforge.net/DTD/sodipodi-0.dtd"
   xmlns:inkscape="http://www.inkscape.org/namespaces/inkscape"
   width="202"
   height="85"
   viewBox="0 0 202 85"
   fill="none"
   version="1.1"
   id="svg4"
   sodipodi:docname="around-bold2.svg"
   inkscape:version="1.0.2 (e86c870879, 2021-01-15, custom)">
  <metadata
     id="metadata10">
    <rdf:RDF>
      <cc:Work
         rdf:about="">
        <dc:format>image/svg+xml</dc:format>
        <dc:type
           rdf:resource="http://purl.org/dc/dcmitype/StillImage" />
        <dc:title></dc:title>
      </cc:Work>
    </rdf:RDF>
  </metadata>
  <defs
     id="defs8" />
  <sodipodi:namedview
     pagecolor="#ffffff"
     bordercolor="#666666"
     borderopacity="1"
     objecttolerance="10"
     gridtolerance="10"
     guidetolerance="10"
     inkscape:pageopacity="0"
     inkscape:pageshadow="2"
     inkscape:window-width="1600"
     inkscape:window-height="877"
     id="namedview6"
     showgrid="false"
     inkscape:zoom="3.1103362"
     inkscape:cx="133.6767"
     inkscape:cy="16.205873"
     inkscape:window-x="-8"
     inkscape:window-y="-8"
     inkscape:window-maximized="1"
     inkscape:current-layer="svg4"
     inkscape:document-rotation="0" />
  <path
     d="M 191.81492,18.812497 C 185.14871,14.458381 184.66521,13.706932 175.71854,10.804268 166.42068,7.7403028 156.33534,4.991558 145.63455,3.7014681 121.95066,0.63750245 88.136167,-2.5851727 65.154571,2.0914009 45.682929,4.2328158 27.27589,12.732667 16.655905,21.748115 6.4808269,28.84367 -1.418972,43.433951 0.51077917,52.464563 2.2651016,61.172709 13.58846,73.226862 27.973932,77.742168 42.885639,82.41875 66.369,84.438146 83.561343,84.599423 c 18.420797,0.161276 42.017547,-2.807418 59.560617,-6.032599 14.91142,-2.741439 28.41993,-8.671426 39.47191,-14.638133 9.82421,-5.321601 17.44706,-12.772613 19.20118,-20.190634 1.75506,-7.418022 -10.67065,-14.06265 -23.1265,-17.449108 -4.21063,-1.128848 -14.41394,-2.57816 -18.7997,-3.223266 -2.28045,-0.322466 -16.40901,2.094418 -14.30369,2.416884 13.20948,1.81571 40.09261,6.496494 43.49008,15.958799 1.05266,6.93428 -1.96635,11.616953 -10.03643,16.777278 -9.29787,5.805431 -20.87618,10.320737 -34.03349,13.384729 -15.61287,3.547734 -32.63056,5.644154 -49.647114,6.127896 C 64.462225,79.021394 23.411226,75.473659 12.183575,57.734901 0.78051096,39.996143 28.84956,22.096108 56.918665,14.033051 76.74247,8.3888969 99.723977,6.7762889 122.17895,8.0663788 c 21.22739,1.2900899 42.98111,4.8378422 58.59493,12.5784152 3.68336,1.773868 7.01648,3.870201 10.17444,5.805344 1.579,1.128848 2.27046,-6.670069 0.8666,-7.637641 z"
     fill="#03a343"
     id="path2"
     sodipodi:nodetypes="cccccccccccccccccccccccc"
     style="fill:#5d8c62;fill-opacity:1;stroke-width:0.908921" />
</svg>
