<svg width="202" height="85" viewBox="0 0 202 85" fill="none" xmlns="http://www.w3.org/2000/svg">
<path d="M198.109 22.3578C191.067 17.3686 183.098 12.9338 173.647 9.60776C163.825 6.09689 152.705 3.8795 141.401 2.40124C116.382 -1.10963 88.7696 -1.10963 64.4925 4.24906C45.5898 8.49906 28.7256 15.7056 16.4944 24.9447C5.74574 33.0752 -1.6671 43.423 0.371434 53.7708C2.22465 63.7491 12.7879 72.4339 27.9843 77.6078C43.7366 82.9665 62.6393 84.8143 80.8008 84.9991C100.26 85.1839 119.904 83.336 138.436 79.6404C154.188 76.4991 168.458 71.8795 180.133 65.0425C190.511 58.9447 199.962 51.1838 201.815 42.6838C203.669 34.1838 195.515 27.3469 182.357 23.4665C177.909 22.173 173.276 21.2491 168.643 20.5099C166.234 20.1404 165.307 22.173 167.531 22.5425C181.615 24.7599 196.812 29.3795 198.109 38.6186C199.221 46.5643 191.252 54.1404 182.727 60.0534C172.905 66.7056 160.674 71.8795 146.775 75.3904C130.282 79.4556 112.305 81.8578 94.3292 82.4121C61.7127 83.8904 18.3476 79.8252 6.48703 59.4991C-5.55884 39.173 24.0925 18.6621 53.7439 9.42298C74.6852 2.95558 98.9622 1.10776 122.683 2.58602C145.107 4.06428 168.087 8.1295 184.581 16.9991C188.472 19.0317 191.993 21.4338 195.329 23.6512C196.997 24.9447 199.592 23.4665 198.109 22.3578Z" fill="#03A343"/>
</svg>
