<svg version="1.2" baseProfile="tiny-ps" xmlns="http://www.w3.org/2000/svg" width="202" height="87"><style>tspan { white-space:pre } .shp0 { fill: #5d8c62 }</style><path id="path2" class="shp0" d="M191.81 20.81c-.48-5.11-4.81-6.77-14.48-11.11C168.4 5.7 159.7 3.29 149 2 125.32-1.06 88.14-.59 65.15 4.09 45.68 6.23 27.28 14.73 16.66 23.75 6.48 30.84-1.42 45.43.51 54.46c1.76 8.71 13.08 20.77 27.46 25.28 14.92 4.68 38.4 6.7 55.59 6.86 18.42.16 42.02-2.81 59.56-6.03 14.91-2.74 28.42-8.67 39.47-14.64 9.83-5.32 17.45-12.77 19.21-20.19 1.75-7.42-10.68-14.06-23.13-17.45-4.21-1.13-14.42-2.58-18.8-3.22-2.28-.33-16.41 2.09-14.3 2.41 13.2 1.82 40.09 6.5 43.49 15.96 1.05 6.94-1.97 11.62-10.04 16.78-9.3 5.8-20.88 10.32-34.03 13.38a259.85 259.85 0 01-49.65 6.13c-30.88 1.29-71.93-2.26-83.16-20C.78 42 28.85 24.1 56.92 16.03c19.82-5.64 42.8-7.25 65.26-5.96 21.23 1.29 42.98 4.83 58.59 12.57 3.69 1.78 7.02 3.87 10.18 5.81 1.58 1.13 1.02-5.94.86-7.64z"/></svg>