<svg width="571" height="275" viewBox="0 0 571 275" fill="none" xmlns="http://www.w3.org/2000/svg">
<path opacity="0.459" d="M0.0857364 87.9386L0.0113525 0.0078125L570.932 0L0.0857364 87.9386Z" fill="#8CB099"/>
<path opacity="0.702" d="M190.326 128.978L100.479 185.49L0.0113525 149.469C0.0113525 149.641 0.0113525 1.24553 0.0113525 1.24553L259.838 0L260.964 55.9749L206.068 86.0297L190.326 128.978Z" fill="#9DBBA8" fill-opacity="0.8"/>
<path opacity="0.459" d="M0.0240032 87.9386L0.0113525 0.0078125L97.109 0L0.0240032 87.9386Z" fill="#8CB099"/>
<path opacity="0.702" d="M455.806 121.937L245.122 176.443L188.552 149.469C188.552 149.641 188.552 1.24553 188.552 1.24553L448.379 0L449.505 55.9749L394.609 86.0297L455.806 121.937Z" fill="#9DBBA8" fill-opacity="0.8"/>
<path opacity="0.631" d="M159.529 134.493L112.356 237.628L0.0113525 274.561L0.632042 0H165.115L182.494 29.2679L151.46 88.5006L159.529 134.493Z" fill="#AAC4B3" fill-opacity="0.57"/>
<path d="M484.996 0L328.88 2.8645L343.203 129.619L390.467 52.9934L458.499 98.8256L484.996 0Z" fill="#A1BDAC" fill-opacity="0.42"/>
<path opacity="0.631" d="M422.921 22.9655L526.055 70.1379L436.939 65.9577L284.953 125.704L288.428 17.3793L317.695 1.38276e-05L376.928 31.0345L422.921 22.9655Z" fill="#AAC4B3" fill-opacity="0.72"/>
</svg>
